<?xml version="1.0" standalone="no"?>
<!DOCTYPE svg PUBLIC "-//W3C//DTD SVG 20010904//EN"
 "http://www.w3.org/TR/2001/REC-SVG-20010904/DTD/svg10.dtd">
<svg version="1.0" xmlns="http://www.w3.org/2000/svg"
 width="300.000000pt" height="284.000000pt" viewBox="0 0 300.000000 284.000000"
 preserveAspectRatio="xMidYMid meet">
<metadata>
Created by potrace 1.10, written by Peter Selinger 2001-2011
</metadata>
<g transform="translate(0.000000,284.000000) scale(0.050000,-0.050000)"
fill="#005c4e" stroke="none">
<path d="M2556 5242 c-1659 -362 -2420 -2217 -1486 -3622 401 -603 1063 -975
1835 -1031 l195 -14 0 52 c0 51 -4 53 -115 53 -1305 1 -2380 1232 -2207 2526
296 2215 3247 2725 4251 734 403 -798 249 -2041 -285 -2304 -277 -136 -486
-57 -864 325 -271 274 -505 473 -671 571 -109 63 -109 62 3 146 634 478 1063
1451 836 1896 -185 361 -755 291 -943 -117 -41 -88 -56 -95 -72 -31 -60 239
-440 399 -635 268 -135 -91 -212 -329 -194 -603 8 -130 7 -135 -23 -89 -239
367 -562 342 -833 -66 -438 -658 -254 -1866 378 -2481 98 -96 99 -97 129 -54
28 40 25 46 -44 103 -740 610 -808 2325 -105 2636 209 93 433 -123 555 -536
21 -69 34 -85 67 -80 48 7 48 12 4 220 -65 312 -33 693 71 825 128 164 408 82
533 -157 l53 -102 13 -820 c7 -451 11 -822 9 -824 -1 -3 -92 41 -202 95 -436
219 -715 215 -843 -11 -254 -448 471 -657 966 -280 36 28 68 50 72 50 3 0 3
-342 0 -760 l-7 -760 52 0 51 0 0 750 0 751 175 -126 c96 -69 319 -268 495
-443 262 -261 343 -329 450 -380 914 -435 1511 1253 875 2476 -472 906 -1561
1427 -2539 1214z m1281 -576 c413 -202 89 -1226 -578 -1827 l-161 -145 6 778
6 778 56 120 c141 301 414 421 671 296z m-1433 -1848 c120 -25 540 -216 525
-239 -47 -77 -416 -219 -571 -219 -407 0 -473 419 -74 478 8 1 62 -8 120 -20z"/>
<path d="M3886 1016 c-89 -43 -94 -189 -8 -235 130 -69 262 85 167 195 -45 52
-103 67 -159 40z"/>
</g>
</svg>
